<mxfile host="app.diagrams.net" modified="2021-09-20T11:37:14.090Z" agent="5.0 (Macintosh; Intel Mac OS X 10_15_7) AppleWebKit/537.36 (KHTML, like Gecko) Chrome/93.0.4577.82 Safari/537.36" etag="kRuI5iOZRG0vjQaQ-n5m" version="15.2.9" type="github">
  <diagram id="C5RBs43oDa-KdzZeNtuy" name="Page-1">
    <mxGraphModel dx="1615" dy="538" grid="1" gridSize="10" guides="1" tooltips="1" connect="1" arrows="1" fold="1" page="1" pageScale="1" pageWidth="827" pageHeight="1169" math="0" shadow="0">
      <root>
        <mxCell id="WIyWlLk6GJQsqaUBKTNV-0" />
        <mxCell id="WIyWlLk6GJQsqaUBKTNV-1" parent="WIyWlLk6GJQsqaUBKTNV-0" />
        <mxCell id="LkO9NCzJJuoqPJhK0rLc-2" style="edgeStyle=orthogonalEdgeStyle;rounded=0;orthogonalLoop=1;jettySize=auto;html=1;" edge="1" parent="WIyWlLk6GJQsqaUBKTNV-1" source="WIyWlLk6GJQsqaUBKTNV-3">
          <mxGeometry relative="1" as="geometry">
            <mxPoint x="50" y="120" as="targetPoint" />
          </mxGeometry>
        </mxCell>
        <mxCell id="LkO9NCzJJuoqPJhK0rLc-6" style="edgeStyle=orthogonalEdgeStyle;rounded=0;orthogonalLoop=1;jettySize=auto;html=1;entryX=0;entryY=0.5;entryDx=0;entryDy=0;" edge="1" parent="WIyWlLk6GJQsqaUBKTNV-1" source="WIyWlLk6GJQsqaUBKTNV-3" target="LkO9NCzJJuoqPJhK0rLc-3">
          <mxGeometry relative="1" as="geometry" />
        </mxCell>
        <mxCell id="WIyWlLk6GJQsqaUBKTNV-3" value="HomeScreen" style="rounded=1;whiteSpace=wrap;html=1;fontSize=12;glass=0;strokeWidth=1;shadow=0;" parent="WIyWlLk6GJQsqaUBKTNV-1" vertex="1">
          <mxGeometry x="140" y="100" width="120" height="40" as="geometry" />
        </mxCell>
        <mxCell id="LkO9NCzJJuoqPJhK0rLc-10" style="edgeStyle=orthogonalEdgeStyle;rounded=0;orthogonalLoop=1;jettySize=auto;html=1;entryX=1;entryY=0.5;entryDx=0;entryDy=0;" edge="1" parent="WIyWlLk6GJQsqaUBKTNV-1" target="LkO9NCzJJuoqPJhK0rLc-7">
          <mxGeometry relative="1" as="geometry">
            <mxPoint x="-100" y="120" as="sourcePoint" />
          </mxGeometry>
        </mxCell>
        <mxCell id="LkO9NCzJJuoqPJhK0rLc-14" style="edgeStyle=orthogonalEdgeStyle;rounded=0;orthogonalLoop=1;jettySize=auto;html=1;entryX=0;entryY=0.25;entryDx=0;entryDy=0;curved=1;" edge="1" parent="WIyWlLk6GJQsqaUBKTNV-1" target="LkO9NCzJJuoqPJhK0rLc-11">
          <mxGeometry relative="1" as="geometry">
            <mxPoint x="-10" y="157.5" as="sourcePoint" />
            <Array as="points">
              <mxPoint x="-10" y="297.5" />
            </Array>
          </mxGeometry>
        </mxCell>
        <mxCell id="LkO9NCzJJuoqPJhK0rLc-0" value="AccountCreationScreen&lt;br&gt;Particulier" style="rounded=1;whiteSpace=wrap;html=1;" vertex="1" parent="WIyWlLk6GJQsqaUBKTNV-1">
          <mxGeometry x="-100" y="90" width="150" height="75" as="geometry" />
        </mxCell>
        <mxCell id="LkO9NCzJJuoqPJhK0rLc-16" style="edgeStyle=orthogonalEdgeStyle;rounded=0;orthogonalLoop=1;jettySize=auto;html=1;entryX=1;entryY=0.5;entryDx=0;entryDy=0;curved=1;" edge="1" parent="WIyWlLk6GJQsqaUBKTNV-1" source="LkO9NCzJJuoqPJhK0rLc-3" target="LkO9NCzJJuoqPJhK0rLc-11">
          <mxGeometry relative="1" as="geometry">
            <Array as="points">
              <mxPoint x="380" y="312.5" />
            </Array>
          </mxGeometry>
        </mxCell>
        <mxCell id="LkO9NCzJJuoqPJhK0rLc-3" value="LoginScreen" style="rounded=1;whiteSpace=wrap;html=1;" vertex="1" parent="WIyWlLk6GJQsqaUBKTNV-1">
          <mxGeometry x="310" y="90" width="120" height="60" as="geometry" />
        </mxCell>
        <mxCell id="LkO9NCzJJuoqPJhK0rLc-13" style="edgeStyle=orthogonalEdgeStyle;rounded=0;orthogonalLoop=1;jettySize=auto;html=1;entryX=0;entryY=0.5;entryDx=0;entryDy=0;curved=1;" edge="1" parent="WIyWlLk6GJQsqaUBKTNV-1" source="LkO9NCzJJuoqPJhK0rLc-7" target="LkO9NCzJJuoqPJhK0rLc-11">
          <mxGeometry relative="1" as="geometry">
            <Array as="points">
              <mxPoint x="-220" y="312.5" />
            </Array>
          </mxGeometry>
        </mxCell>
        <mxCell id="LkO9NCzJJuoqPJhK0rLc-7" value="AccountCreationScreen&lt;br&gt;Commercant" style="rounded=1;whiteSpace=wrap;html=1;" vertex="1" parent="WIyWlLk6GJQsqaUBKTNV-1">
          <mxGeometry x="-320" y="90" width="150" height="60" as="geometry" />
        </mxCell>
        <mxCell id="LkO9NCzJJuoqPJhK0rLc-22" style="edgeStyle=orthogonalEdgeStyle;curved=1;rounded=0;orthogonalLoop=1;jettySize=auto;html=1;" edge="1" parent="WIyWlLk6GJQsqaUBKTNV-1" source="LkO9NCzJJuoqPJhK0rLc-11" target="LkO9NCzJJuoqPJhK0rLc-17">
          <mxGeometry relative="1" as="geometry">
            <Array as="points">
              <mxPoint x="134" y="370" />
              <mxPoint x="-210" y="370" />
            </Array>
          </mxGeometry>
        </mxCell>
        <mxCell id="LkO9NCzJJuoqPJhK0rLc-23" style="edgeStyle=orthogonalEdgeStyle;curved=1;rounded=0;orthogonalLoop=1;jettySize=auto;html=1;" edge="1" parent="WIyWlLk6GJQsqaUBKTNV-1" source="LkO9NCzJJuoqPJhK0rLc-11" target="LkO9NCzJJuoqPJhK0rLc-18">
          <mxGeometry relative="1" as="geometry">
            <Array as="points">
              <mxPoint x="134" y="390" />
              <mxPoint x="-350" y="390" />
            </Array>
          </mxGeometry>
        </mxCell>
        <mxCell id="LkO9NCzJJuoqPJhK0rLc-25" style="edgeStyle=orthogonalEdgeStyle;curved=1;rounded=0;orthogonalLoop=1;jettySize=auto;html=1;entryX=0.5;entryY=0;entryDx=0;entryDy=0;" edge="1" parent="WIyWlLk6GJQsqaUBKTNV-1" source="LkO9NCzJJuoqPJhK0rLc-11" target="LkO9NCzJJuoqPJhK0rLc-20">
          <mxGeometry relative="1" as="geometry">
            <Array as="points">
              <mxPoint x="134" y="380" />
              <mxPoint x="160" y="380" />
            </Array>
          </mxGeometry>
        </mxCell>
        <mxCell id="LkO9NCzJJuoqPJhK0rLc-26" style="edgeStyle=orthogonalEdgeStyle;curved=1;rounded=0;orthogonalLoop=1;jettySize=auto;html=1;entryX=0.5;entryY=0;entryDx=0;entryDy=0;" edge="1" parent="WIyWlLk6GJQsqaUBKTNV-1" source="LkO9NCzJJuoqPJhK0rLc-11" target="LkO9NCzJJuoqPJhK0rLc-21">
          <mxGeometry relative="1" as="geometry">
            <Array as="points">
              <mxPoint x="134" y="370" />
              <mxPoint x="500" y="370" />
            </Array>
          </mxGeometry>
        </mxCell>
        <mxCell id="LkO9NCzJJuoqPJhK0rLc-36" style="edgeStyle=orthogonalEdgeStyle;curved=1;rounded=0;orthogonalLoop=1;jettySize=auto;html=1;entryX=0.5;entryY=0;entryDx=0;entryDy=0;" edge="1" parent="WIyWlLk6GJQsqaUBKTNV-1" source="LkO9NCzJJuoqPJhK0rLc-11" target="LkO9NCzJJuoqPJhK0rLc-19">
          <mxGeometry relative="1" as="geometry">
            <Array as="points">
              <mxPoint x="134" y="410" />
              <mxPoint x="-70" y="410" />
            </Array>
          </mxGeometry>
        </mxCell>
        <mxCell id="LkO9NCzJJuoqPJhK0rLc-11" value="Composant&lt;br&gt;MenuNav" style="rounded=1;whiteSpace=wrap;html=1;" vertex="1" parent="WIyWlLk6GJQsqaUBKTNV-1">
          <mxGeometry x="74" y="282.5" width="120" height="60" as="geometry" />
        </mxCell>
        <mxCell id="LkO9NCzJJuoqPJhK0rLc-32" style="edgeStyle=orthogonalEdgeStyle;curved=1;rounded=0;orthogonalLoop=1;jettySize=auto;html=1;entryX=1;entryY=0.5;entryDx=0;entryDy=0;" edge="1" parent="WIyWlLk6GJQsqaUBKTNV-1" source="LkO9NCzJJuoqPJhK0rLc-17" target="LkO9NCzJJuoqPJhK0rLc-27">
          <mxGeometry relative="1" as="geometry" />
        </mxCell>
        <mxCell id="LkO9NCzJJuoqPJhK0rLc-33" style="edgeStyle=orthogonalEdgeStyle;curved=1;rounded=0;orthogonalLoop=1;jettySize=auto;html=1;entryX=0.99;entryY=0.635;entryDx=0;entryDy=0;entryPerimeter=0;" edge="1" parent="WIyWlLk6GJQsqaUBKTNV-1" source="LkO9NCzJJuoqPJhK0rLc-17" target="LkO9NCzJJuoqPJhK0rLc-29">
          <mxGeometry relative="1" as="geometry" />
        </mxCell>
        <mxCell id="LkO9NCzJJuoqPJhK0rLc-34" style="edgeStyle=orthogonalEdgeStyle;curved=1;rounded=0;orthogonalLoop=1;jettySize=auto;html=1;entryX=1;entryY=0.5;entryDx=0;entryDy=0;" edge="1" parent="WIyWlLk6GJQsqaUBKTNV-1" source="LkO9NCzJJuoqPJhK0rLc-17" target="LkO9NCzJJuoqPJhK0rLc-30">
          <mxGeometry relative="1" as="geometry" />
        </mxCell>
        <mxCell id="LkO9NCzJJuoqPJhK0rLc-35" style="edgeStyle=orthogonalEdgeStyle;curved=1;rounded=0;orthogonalLoop=1;jettySize=auto;html=1;entryX=1;entryY=0.5;entryDx=0;entryDy=0;" edge="1" parent="WIyWlLk6GJQsqaUBKTNV-1" source="LkO9NCzJJuoqPJhK0rLc-17" target="LkO9NCzJJuoqPJhK0rLc-31">
          <mxGeometry relative="1" as="geometry" />
        </mxCell>
        <mxCell id="LkO9NCzJJuoqPJhK0rLc-17" value="MainNav" style="rounded=1;whiteSpace=wrap;html=1;" vertex="1" parent="WIyWlLk6GJQsqaUBKTNV-1">
          <mxGeometry x="-430" y="290" width="120" height="60" as="geometry" />
        </mxCell>
        <mxCell id="LkO9NCzJJuoqPJhK0rLc-52" style="edgeStyle=orthogonalEdgeStyle;curved=1;rounded=0;orthogonalLoop=1;jettySize=auto;html=1;entryX=0.5;entryY=0;entryDx=0;entryDy=0;" edge="1" parent="WIyWlLk6GJQsqaUBKTNV-1" source="LkO9NCzJJuoqPJhK0rLc-18" target="LkO9NCzJJuoqPJhK0rLc-50">
          <mxGeometry relative="1" as="geometry" />
        </mxCell>
        <mxCell id="LkO9NCzJJuoqPJhK0rLc-53" style="edgeStyle=orthogonalEdgeStyle;curved=1;rounded=0;orthogonalLoop=1;jettySize=auto;html=1;entryX=0.5;entryY=0;entryDx=0;entryDy=0;" edge="1" parent="WIyWlLk6GJQsqaUBKTNV-1" source="LkO9NCzJJuoqPJhK0rLc-18" target="LkO9NCzJJuoqPJhK0rLc-51">
          <mxGeometry relative="1" as="geometry" />
        </mxCell>
        <mxCell id="LkO9NCzJJuoqPJhK0rLc-18" value="SearchNav" style="rounded=1;whiteSpace=wrap;html=1;" vertex="1" parent="WIyWlLk6GJQsqaUBKTNV-1">
          <mxGeometry x="-430" y="525" width="120" height="60" as="geometry" />
        </mxCell>
        <mxCell id="LkO9NCzJJuoqPJhK0rLc-39" style="edgeStyle=orthogonalEdgeStyle;curved=1;rounded=0;orthogonalLoop=1;jettySize=auto;html=1;" edge="1" parent="WIyWlLk6GJQsqaUBKTNV-1" source="LkO9NCzJJuoqPJhK0rLc-19" target="LkO9NCzJJuoqPJhK0rLc-37">
          <mxGeometry relative="1" as="geometry" />
        </mxCell>
        <mxCell id="LkO9NCzJJuoqPJhK0rLc-40" style="edgeStyle=orthogonalEdgeStyle;curved=1;rounded=0;orthogonalLoop=1;jettySize=auto;html=1;entryX=0.5;entryY=0;entryDx=0;entryDy=0;" edge="1" parent="WIyWlLk6GJQsqaUBKTNV-1" source="LkO9NCzJJuoqPJhK0rLc-19" target="LkO9NCzJJuoqPJhK0rLc-38">
          <mxGeometry relative="1" as="geometry" />
        </mxCell>
        <mxCell id="LkO9NCzJJuoqPJhK0rLc-19" value="NavAdd" style="rounded=1;whiteSpace=wrap;html=1;" vertex="1" parent="WIyWlLk6GJQsqaUBKTNV-1">
          <mxGeometry x="-130" y="480" width="120" height="60" as="geometry" />
        </mxCell>
        <mxCell id="LkO9NCzJJuoqPJhK0rLc-43" style="edgeStyle=orthogonalEdgeStyle;curved=1;rounded=0;orthogonalLoop=1;jettySize=auto;html=1;" edge="1" parent="WIyWlLk6GJQsqaUBKTNV-1" source="LkO9NCzJJuoqPJhK0rLc-20" target="LkO9NCzJJuoqPJhK0rLc-41">
          <mxGeometry relative="1" as="geometry" />
        </mxCell>
        <mxCell id="LkO9NCzJJuoqPJhK0rLc-49" style="edgeStyle=orthogonalEdgeStyle;curved=1;rounded=0;orthogonalLoop=1;jettySize=auto;html=1;entryX=0.5;entryY=0;entryDx=0;entryDy=0;" edge="1" parent="WIyWlLk6GJQsqaUBKTNV-1" source="LkO9NCzJJuoqPJhK0rLc-20" target="LkO9NCzJJuoqPJhK0rLc-42">
          <mxGeometry relative="1" as="geometry" />
        </mxCell>
        <mxCell id="LkO9NCzJJuoqPJhK0rLc-20" value="NavChat" style="rounded=1;whiteSpace=wrap;html=1;" vertex="1" parent="WIyWlLk6GJQsqaUBKTNV-1">
          <mxGeometry x="170" y="430" width="120" height="60" as="geometry" />
        </mxCell>
        <mxCell id="LkO9NCzJJuoqPJhK0rLc-47" style="edgeStyle=orthogonalEdgeStyle;curved=1;rounded=0;orthogonalLoop=1;jettySize=auto;html=1;entryX=0.5;entryY=0;entryDx=0;entryDy=0;" edge="1" parent="WIyWlLk6GJQsqaUBKTNV-1" source="LkO9NCzJJuoqPJhK0rLc-21" target="LkO9NCzJJuoqPJhK0rLc-45">
          <mxGeometry relative="1" as="geometry" />
        </mxCell>
        <mxCell id="LkO9NCzJJuoqPJhK0rLc-48" style="edgeStyle=orthogonalEdgeStyle;curved=1;rounded=0;orthogonalLoop=1;jettySize=auto;html=1;entryX=0.5;entryY=0;entryDx=0;entryDy=0;" edge="1" parent="WIyWlLk6GJQsqaUBKTNV-1" source="LkO9NCzJJuoqPJhK0rLc-21" target="LkO9NCzJJuoqPJhK0rLc-46">
          <mxGeometry relative="1" as="geometry">
            <Array as="points">
              <mxPoint x="500" y="530" />
              <mxPoint x="740" y="530" />
            </Array>
          </mxGeometry>
        </mxCell>
        <mxCell id="LkO9NCzJJuoqPJhK0rLc-21" value="NavProfil" style="rounded=1;whiteSpace=wrap;html=1;" vertex="1" parent="WIyWlLk6GJQsqaUBKTNV-1">
          <mxGeometry x="440" y="430" width="120" height="60" as="geometry" />
        </mxCell>
        <mxCell id="LkO9NCzJJuoqPJhK0rLc-27" value="FeedScreen" style="rounded=1;whiteSpace=wrap;html=1;" vertex="1" parent="WIyWlLk6GJQsqaUBKTNV-1">
          <mxGeometry x="-600" y="132.5" width="120" height="60" as="geometry" />
        </mxCell>
        <mxCell id="LkO9NCzJJuoqPJhK0rLc-29" value="MapScreen" style="rounded=1;whiteSpace=wrap;html=1;" vertex="1" parent="WIyWlLk6GJQsqaUBKTNV-1">
          <mxGeometry x="-600" y="232.5" width="120" height="60" as="geometry" />
        </mxCell>
        <mxCell id="LkO9NCzJJuoqPJhK0rLc-30" value="Event" style="rounded=1;whiteSpace=wrap;html=1;" vertex="1" parent="WIyWlLk6GJQsqaUBKTNV-1">
          <mxGeometry x="-600" y="332.5" width="120" height="60" as="geometry" />
        </mxCell>
        <mxCell id="LkO9NCzJJuoqPJhK0rLc-31" value="FilterScreen" style="rounded=1;whiteSpace=wrap;html=1;" vertex="1" parent="WIyWlLk6GJQsqaUBKTNV-1">
          <mxGeometry x="-600" y="432.5" width="120" height="60" as="geometry" />
        </mxCell>
        <mxCell id="LkO9NCzJJuoqPJhK0rLc-37" value="AddPostScreen" style="rounded=1;whiteSpace=wrap;html=1;" vertex="1" parent="WIyWlLk6GJQsqaUBKTNV-1">
          <mxGeometry x="-230" y="640" width="120" height="60" as="geometry" />
        </mxCell>
        <mxCell id="LkO9NCzJJuoqPJhK0rLc-38" value="AddEventScreen" style="rounded=1;whiteSpace=wrap;html=1;" vertex="1" parent="WIyWlLk6GJQsqaUBKTNV-1">
          <mxGeometry x="-30" y="640" width="120" height="60" as="geometry" />
        </mxCell>
        <mxCell id="LkO9NCzJJuoqPJhK0rLc-41" value="MessageScreen" style="rounded=1;whiteSpace=wrap;html=1;" vertex="1" parent="WIyWlLk6GJQsqaUBKTNV-1">
          <mxGeometry x="120" y="640" width="120" height="60" as="geometry" />
        </mxCell>
        <mxCell id="LkO9NCzJJuoqPJhK0rLc-42" value="ChatScreen" style="rounded=1;whiteSpace=wrap;html=1;" vertex="1" parent="WIyWlLk6GJQsqaUBKTNV-1">
          <mxGeometry x="260" y="640" width="120" height="60" as="geometry" />
        </mxCell>
        <mxCell id="LkO9NCzJJuoqPJhK0rLc-45" value="ProfilScreen" style="rounded=1;whiteSpace=wrap;html=1;" vertex="1" parent="WIyWlLk6GJQsqaUBKTNV-1">
          <mxGeometry x="510" y="630" width="120" height="60" as="geometry" />
        </mxCell>
        <mxCell id="LkO9NCzJJuoqPJhK0rLc-46" value="EditProfilScreen" style="rounded=1;whiteSpace=wrap;html=1;" vertex="1" parent="WIyWlLk6GJQsqaUBKTNV-1">
          <mxGeometry x="680" y="630" width="120" height="60" as="geometry" />
        </mxCell>
        <mxCell id="LkO9NCzJJuoqPJhK0rLc-50" value="SearchScreen" style="rounded=1;whiteSpace=wrap;html=1;" vertex="1" parent="WIyWlLk6GJQsqaUBKTNV-1">
          <mxGeometry x="-540" y="650" width="120" height="60" as="geometry" />
        </mxCell>
        <mxCell id="LkO9NCzJJuoqPJhK0rLc-51" value="ProfilSearchScreen" style="rounded=1;whiteSpace=wrap;html=1;" vertex="1" parent="WIyWlLk6GJQsqaUBKTNV-1">
          <mxGeometry x="-380" y="650" width="120" height="60" as="geometry" />
        </mxCell>
      </root>
    </mxGraphModel>
  </diagram>
</mxfile>
